<svg xmlns="http://www.w3.org/2000/svg" viewBox="0 0 1060 354" font-family="Helvetica Neue, Arial, sans-serif"><style>
.ln{stroke:#94a3b8;stroke-width:1.6;fill:none;}
.t{fill:#1e293b;} .m{fill:#64748b;}
.wt{fill:#ffffff;} .ws{fill:#ffffff;opacity:.92;}
.ahd{fill:#94a3b8;}
.fail{stroke:#e74c3c;stroke-width:1.7;stroke-dasharray:5 4;fill:none;}
.failt{fill:#e74c3c;}
.loop{stroke:#6c6cf0;stroke-width:1.7;stroke-dasharray:5 4;fill:none;}
.loopt{fill:#6c6cf0;}
.skip{stroke:#e74c3c;stroke-width:1.6;stroke-dasharray:2 4;fill:none;}
@media (prefers-color-scheme:dark){
 .ln{stroke:#cbd5e1;} .t{fill:#f1f5f9;} .m{fill:#94a3b8;} .ahd{fill:#cbd5e1;}
 .fail{stroke:#f87171;} .failt{fill:#f87171;}
 .loop{stroke:#a5b4fc;} .loopt{fill:#a5b4fc;}
 .skip{stroke:#f87171;}
}
</style><defs>
<marker id="ah" markerWidth="9" markerHeight="9" refX="7" refY="4" orient="auto"><path d="M0,0 L8,4 L0,8 Z" class="ahd"/></marker>
<marker id="af" markerWidth="9" markerHeight="9" refX="7" refY="4" orient="auto"><path d="M0,0 L8,4 L0,8 Z" class="failt"/></marker>
<marker id="al" markerWidth="9" markerHeight="9" refX="7" refY="4" orient="auto"><path d="M0,0 L8,4 L0,8 Z" class="loopt"/></marker>
</defs><text x="530.0" y="44" text-anchor="middle" font-size="15" font-weight="700" class="t">Ba thứ giữ cho agent đi thẳng</text><rect x="60" y="90" width="240" height="58" rx="8" fill="#2f9bde"/><text x="180.0" y="124.0" text-anchor="middle" font-size="14" font-weight="700" class="wt">Spec rõ</text><path class="ln" d="M300 119.0 L726 199.0" marker-end="url(#ah)"/><rect x="60" y="170" width="240" height="58" rx="8" fill="#ef8b3a"/><text x="180.0" y="204.0" text-anchor="middle" font-size="14" font-weight="700" class="wt">Gán vai</text><path class="ln" d="M300 199.0 L726 199.0" marker-end="url(#ah)"/><rect x="60" y="250" width="240" height="58" rx="8" fill="#e6398f"/><text x="180.0" y="284.0" text-anchor="middle" font-size="14" font-weight="700" class="wt">Quy trình cố định</text><path class="ln" d="M300 279.0 L726 199.0" marker-end="url(#ah)"/><rect x="730" y="159.0" width="260" height="80" rx="8" fill="#8cbf3f"/><text x="860.0" y="196.0" text-anchor="middle" font-size="14" font-weight="700" class="wt">Agent đi thẳng</text><text x="860.0" y="215.0" text-anchor="middle" font-size="12" class="ws">ít phải kèm</text><text x="530.0" y="352" text-anchor="middle" font-size="12.5" class="m">Thiếu một thứ: nó đoán, bỏ bước, tự nhận xong sớm.</text></svg>
